<svg width="256" height="84" viewBox="0 0 256 84" fill="none" xmlns="http://www.w3.org/2000/svg">
<path d="M109.16 44.188C109.16 56.2685 99.7092 65.1705 88.1111 65.1705C76.5131 65.1705 67.0625 56.2685 67.0625 44.188C67.0625 32.0224 76.5131 23.2056 88.1111 23.2056C99.7092 23.2056 109.16 32.0224 109.16 44.188ZM99.9457 44.188C99.9457 36.6389 94.4683 31.4737 88.1111 31.4737C81.754 31.4737 76.2766 36.6389 76.2766 44.188C76.2766 51.6615 81.754 56.9024 88.1111 56.9024C94.4683 56.9024 99.9457 51.652 99.9457 44.188Z" fill="#24285B"/>
<path d="M154.568 44.188C154.568 56.2685 145.117 65.1705 133.519 65.1705C121.921 65.1705 112.471 56.2685 112.471 44.188C112.471 32.0319 121.921 23.2056 133.519 23.2056C145.117 23.2056 154.568 32.0224 154.568 44.188ZM145.354 44.188C145.354 36.6389 139.877 31.4737 133.519 31.4737C127.162 31.4737 121.685 36.6389 121.685 44.188C121.685 51.6615 127.162 56.9024 133.519 56.9024C139.877 56.9024 145.354 51.652 145.354 44.188Z" fill="#24285B"/>
<path d="M198.084 24.4733V62.1432C198.084 77.6388 188.946 83.9675 178.142 83.9675C167.973 83.9675 161.852 77.1658 159.544 71.6033L167.566 68.2639C168.994 71.6789 172.495 75.7089 178.133 75.7089C185.048 75.7089 189.333 71.4424 189.333 63.4109V60.3931H189.012C186.95 62.9378 182.976 65.161 177.963 65.161C167.471 65.161 157.86 56.0225 157.86 44.2637C157.86 32.4197 167.471 23.2056 177.963 23.2056C182.967 23.2056 186.94 25.4287 189.012 27.8978H189.333V24.4827H198.084V24.4733ZM189.986 44.2637C189.986 36.8754 185.058 31.4737 178.786 31.4737C172.428 31.4737 167.102 36.8754 167.102 44.2637C167.102 51.5763 172.428 56.9023 178.786 56.9023C185.058 56.9023 189.986 51.5763 189.986 44.2637Z" fill="#24285B"/>
<path d="M212.511 2.39349V63.8839H203.524V2.39349H212.511Z" fill="#24285B"/>
<path d="M247.532 51.094L254.684 55.8619C252.375 59.2769 246.813 65.1611 237.201 65.1611C225.282 65.1611 216.38 55.947 216.38 44.1787C216.38 31.7008 225.358 23.1962 236.17 23.1962C247.059 23.1962 252.385 31.8617 254.125 36.5444L255.081 38.9283L227.032 50.5453C229.179 54.755 232.519 56.9025 237.201 56.9025C241.894 56.9025 245.148 54.5942 247.532 51.094ZM225.518 43.5448L244.268 35.7592C243.237 33.1388 240.134 31.313 236.483 31.313C231.8 31.313 225.282 35.447 225.518 43.5448Z" fill="#24285B"/>
<path d="M33.044 38.7295V29.8276H63.0419C63.3352 31.379 63.4865 33.2143 63.4865 35.2009C63.4865 41.8797 61.6607 50.1384 55.7766 56.0225C50.0532 61.9824 42.7406 65.1609 33.0535 65.1609C15.0983 65.1609 0 50.5357 0 32.5805C0 14.6253 15.0983 0 33.0535 0C42.9866 0 50.0627 3.89755 55.3793 8.9776L49.0978 15.2591C45.2854 11.6832 40.1202 8.90192 33.044 8.90192C19.9324 8.90192 9.67765 19.4688 9.67765 32.5805C9.67765 45.6921 19.9324 56.259 33.044 56.259C41.5486 56.259 46.3922 52.8439 49.4951 49.741C52.0115 47.2247 53.667 43.6298 54.3197 38.7201L33.044 38.7295Z" fill="#24285B"/>
</svg>
