<svg width="156" height="156" viewBox="0 0 156 156" fill="none" xmlns="http://www.w3.org/2000/svg">
<path d="M155.981 65.1649C155.981 73.7152 155.981 82.2646 155.981 90.8149C155.551 93.429 155.063 96.0349 154.698 98.6572C150.428 129.414 132.506 148.314 102.068 154.086C98.3325 154.795 94.5673 155.352 90.8159 155.98C82.2655 155.98 73.7161 155.98 65.1658 155.98C62.5517 155.549 59.945 155.064 57.3217 154.696C26.5013 150.372 7.73767 132.579 1.89406 102.066C1.17863 98.3316 0.627379 94.5664 0 90.8149C0 82.2646 0 73.7152 0 65.1649C0.430177 62.5508 0.918138 59.945 1.28227 57.3226C5.55102 26.5765 23.4854 7.6643 53.9124 1.89406C57.6492 1.18505 61.4134 0.627379 65.1649 0C73.7152 0 82.2646 0 90.8149 0C93.429 0.431094 96.0358 0.916304 98.659 1.28411C129.479 5.60789 148.243 23.4011 154.087 53.9142C154.802 57.6482 155.353 61.4144 155.981 65.1649ZM129.605 45.8069C129.704 42.2499 129.574 41.9418 126.576 40.8567C110.921 35.1919 95.723 36.0385 81.2327 44.4852C78.781 45.9142 77.0548 45.8198 74.6471 44.4329C60.7338 36.4238 46.0793 35.2451 30.9094 40.3128C25.9665 41.9638 25.6758 42.5013 26.7141 47.6331C29.7803 62.7828 37.5987 74.792 50.9911 82.6801C54.5187 84.7585 55.5194 87.0433 55.6019 90.9076C55.9477 106.976 62.6388 120.032 75.0644 130.222C77.1071 131.897 78.6673 132.049 80.7998 130.312C92.2146 121.016 99.3167 109.107 100.047 94.4756C100.39 87.5946 102.752 84.0596 108.288 80.399C120.895 72.0624 127.563 59.6111 129.605 45.8069Z" fill="#24285B"/>
<path d="M106.634 47.7239C119.917 48.3513 119.309 48.8236 113.942 58.9947C109.467 67.4772 102.272 73.1832 93.4139 76.7924C89.3038 78.4673 85.1589 79.0516 81.0085 76.9704C78.9081 75.9174 78.3807 76.8548 78.2678 78.8094C77.9386 84.5485 80.8361 88.2981 86.7347 88.9557C89.49 89.263 90.1587 90.1839 89.8808 92.8796C89.003 101.403 86.0257 109.006 80.6664 115.678C78.3293 118.587 77.6845 118.646 75.43 115.84C67.5464 106.027 64.4187 94.9039 66.5934 82.448C67.3281 78.2407 69.0305 74.4462 73.0369 72.266C74.7448 71.3368 74.6228 70.6783 73.1406 69.6299C67.9885 65.9858 62.7338 66.6938 58.9713 71.8807C57.623 73.739 56.5462 73.8647 54.7356 72.6539C47.163 67.5946 41.9752 60.731 38.8429 52.2265C38.0514 50.0775 38.6962 48.9199 40.9195 48.531C54.5953 46.1435 66.565 49.6537 76.6856 59.1203C79.086 61.3657 80.4967 64.3412 80.5178 67.7789C80.5306 69.8353 81.3855 70.1022 83.141 69.2584C88.4829 66.6902 90.4641 61.872 87.9665 56.3311C86.8677 53.8922 87.4887 52.8291 89.6909 51.8129C95.3419 49.2061 101.252 47.8752 106.634 47.7239Z" fill="#24285B"/>
</svg>
