<svg width="203" height="71" viewBox="0 0 203 71" fill="none" xmlns="http://www.w3.org/2000/svg">
<path d="M11.6793 50.3301C12.5371 52.6067 13.7248 54.5532 15.2425 56.1697C16.7603 57.7864 18.5583 59.0236 20.6367 59.8815C22.7153 60.7393 24.9753 61.1681 27.4168 61.1681C29.7923 61.1681 32.0192 60.7227 34.0978 59.8318C36.1764 58.9408 37.9909 57.6872 39.5415 56.0707C41.0921 54.454 42.2964 52.5241 43.1542 50.2806C44.0121 48.0371 44.4409 45.5299 44.4409 42.7583V0H54.8335V69.2842H44.5399V62.8506C42.2305 65.2919 39.5084 67.1725 36.3742 68.4924C33.2397 69.812 29.8583 70.4718 26.2291 70.4718C22.5338 70.4718 19.0861 69.8284 15.8858 68.5417C12.6856 67.255 9.91406 65.4241 7.57177 63.0485C5.22948 60.673 3.38171 57.8195 2.02911 54.4871C0.676297 51.1549 0 47.4433 0 43.352V0H10.3926V42.7583C10.3926 45.5299 10.8214 48.0535 11.6793 50.3301Z" fill="#24285B"/>
<path d="M72.7474 0V25.2392C75.0569 22.9297 77.7294 21.0988 80.7647 19.746C83.7999 18.3932 87.0993 17.7169 90.6623 17.7169C94.3576 17.7169 97.8215 18.4096 101.055 19.7953C104.288 21.181 107.092 23.0616 109.468 25.4372C111.843 27.8127 113.724 30.6169 115.11 33.8501C116.495 37.0836 117.188 40.5148 117.188 44.144C117.188 47.7729 116.495 51.1877 115.11 54.3879C113.724 57.5882 111.843 60.3762 109.468 62.7514C107.092 65.1269 104.288 67.0076 101.055 68.3932C97.8215 69.7789 94.3574 70.4716 90.6623 70.4716C87.099 70.4716 83.7835 69.7953 80.7152 68.4425C77.6469 67.0899 74.9579 65.2588 72.6484 62.9493V69.2839H62.7508V0H72.7474ZM73.8856 50.9733C74.7763 53.085 76.0137 54.9325 77.5974 56.5162C79.181 58.0998 81.0286 59.3537 83.14 60.2774C85.2517 61.2012 87.5281 61.6631 89.9696 61.6631C92.3452 61.6631 94.5885 61.2012 96.6999 60.2774C98.8114 59.3537 100.642 58.1001 102.193 56.5162C103.744 54.9328 104.981 53.085 105.905 50.9733C106.829 48.8619 107.291 46.5855 107.291 44.144C107.291 41.7025 106.829 39.4095 105.905 37.2649C104.981 35.1204 103.744 33.2564 102.193 31.6728C100.643 30.0893 98.8116 28.8519 96.6999 27.9612C94.5883 27.0705 92.345 26.6248 89.9696 26.6248C87.5942 26.6248 85.3507 27.0703 83.2392 27.9612C81.1278 28.8522 79.2802 30.0893 77.6964 31.6728C76.1129 33.2564 74.8591 35.1204 73.9353 37.2649C73.0116 39.4095 72.5497 41.7025 72.5497 44.144C72.5494 46.5855 72.9949 48.8619 73.8856 50.9733Z" fill="#24285B"/>
<path d="M122.829 33.9493C124.149 30.782 125.964 27.9943 128.273 25.5858C130.582 23.1774 133.321 21.2803 136.488 19.8947C139.655 18.509 143.087 17.8163 146.782 17.8163C150.411 17.8163 153.776 18.4762 156.878 19.7957C159.979 21.1154 162.651 22.9466 164.895 25.2891C167.138 27.6314 168.887 30.4029 170.14 33.6031C171.394 36.8034 172.021 40.2841 172.021 44.0454V47.3117H130.946C131.276 49.3572 131.935 51.2542 132.925 53.0026C133.915 54.7511 135.152 56.2689 136.637 57.5555C138.121 58.8424 139.804 59.8488 141.685 60.5744C143.565 61.3002 145.561 61.6633 147.673 61.6633C153.677 61.6633 158.527 59.1887 162.223 54.2398L169.448 59.5844C166.94 62.9497 163.839 65.5892 160.144 67.5027C156.449 69.4162 152.292 70.373 147.673 70.373C143.912 70.373 140.398 69.7129 137.132 68.3934C133.866 67.0739 131.028 65.2261 128.62 62.8505C126.211 60.4749 124.314 57.6872 122.929 54.487C121.543 51.2869 120.85 47.806 120.85 44.0449C120.85 40.4819 121.51 37.1166 122.829 33.9493ZM136.736 30.0396C133.931 32.3821 132.067 35.4999 131.143 39.393H161.926C161.068 35.4999 159.237 32.3821 156.432 30.0396C153.628 27.6973 150.345 26.526 146.584 26.526C142.823 26.526 139.54 27.6973 136.736 30.0396Z" fill="#24285B"/>
<path d="M190.727 31.1777C188.616 33.4872 187.56 36.6214 187.56 40.5806V69.2842H177.563V18.8057H187.461V25.0413C188.714 22.9958 190.347 21.3791 192.36 20.1914C194.372 19.0035 196.764 18.4095 199.536 18.4095H203V27.7134H198.843C195.544 27.7137 192.838 28.8683 190.727 31.1777Z" fill="#24285B"/>
</svg>
