<svg width="406" height="306" viewBox="0 0 406 306" fill="none" xmlns="http://www.w3.org/2000/svg">
<path opacity="0.45" d="M199.407 282.433C271.776 282.433 330.443 276.771 330.443 269.786C330.443 262.801 271.776 257.139 199.407 257.139C127.037 257.139 68.3704 262.801 68.3704 269.786C68.3704 276.771 127.037 282.433 199.407 282.433Z" fill="#E6E6E6"/>
<path d="M283.489 103.57V264.762H117.628V57.9047H234.252" fill="#E6E6E6"/>
<path d="M234.252 57.9047V103.57H283.489L234.252 57.9047Z" fill="#24285B"/>
<path d="M206.268 102.402H190.982V144.129H206.268V102.402Z" fill="#24285B"/>
<path d="M219.484 130.903V115.618H177.757V130.903H219.484Z" fill="#24285B"/>
<path opacity="0.13" d="M167.384 71.4346H130.844V91.9071H167.384V71.4346Z" fill="black"/>
<path opacity="0.33" d="M261.718 157.984H140.435V222.599H261.718V157.984Z" fill="white"/>
<path d="M283.835 241.396H316.568C318.254 241.396 319.87 242.066 321.061 243.257C322.253 244.449 322.922 246.065 322.922 247.75V264.65H283.845V241.396H283.835Z" fill="#FFD200"/>
<path d="M291.589 180.537H235.805V264.67H291.589V180.537Z" fill="#24285B"/>
<path d="M292.817 172.458H234.577C231.135 172.458 228.345 175.248 228.345 178.69V187.53C228.345 190.972 231.135 193.762 234.577 193.762H292.817C296.259 193.762 299.049 190.972 299.049 187.53V178.69C299.049 175.248 296.259 172.458 292.817 172.458Z" fill="#24285B"/>
<path opacity="0.13" d="M292.817 172.458H234.577C231.135 172.458 228.345 175.248 228.345 178.69V187.53C228.345 190.972 231.135 193.762 234.577 193.762H292.817C296.259 193.762 299.049 190.972 299.049 187.53V178.69C299.049 175.248 296.259 172.458 292.817 172.458Z" fill="black"/>
<path opacity="0.46" d="M291.589 211.565H235.805V247.364H291.589V211.565Z" fill="white"/>
<path opacity="0.08" d="M250.34 238.737C250.34 238.737 270.355 241.244 251.72 264.65H235.805L240.291 241.386L250.34 238.737Z" fill="black"/>
<path d="M245.545 233.221L247.282 234.272C248.781 235.179 249.859 236.645 250.278 238.346C250.697 240.048 250.423 241.846 249.516 243.346L243.674 253.003L230.647 245.123L236.488 235.466C237.394 233.969 238.855 232.893 240.553 232.472C242.25 232.051 244.046 232.321 245.545 233.221Z" fill="#24285B"/>
<path d="M230.622 245.114L243.649 252.994L237.807 262.651C236.9 264.151 235.435 265.229 233.733 265.648C232.031 266.066 230.233 265.792 228.733 264.885L226.996 263.834C225.497 262.927 224.419 261.462 224 259.76C223.581 258.059 223.856 256.26 224.763 254.761L230.604 245.103L230.622 245.114Z" fill="#24285B"/>
<path d="M227.974 233.222L229.711 234.273C231.21 235.18 232.288 236.645 232.707 238.347C233.126 240.049 232.852 241.847 231.945 243.347L226.103 253.004L213.076 245.124L218.918 235.466C219.823 233.97 221.285 232.893 222.982 232.473C224.68 232.052 226.475 232.322 227.974 233.222Z" fill="#24285B"/>
<path d="M213.06 245.12L226.087 253L220.245 262.657C219.338 264.157 217.872 265.235 216.171 265.654C214.469 266.072 212.671 265.798 211.171 264.891L209.434 263.84C207.935 262.933 206.857 261.468 206.438 259.766C206.019 258.065 206.294 256.266 207.201 254.767L213.042 245.109L213.06 245.12Z" fill="#24285B"/>
<path d="M181.898 234.525H140.435V247.365H181.898V234.525Z" fill="white"/>
</svg>
