<svg width="506" height="355" viewBox="0 0 506 355" fill="none" xmlns="http://www.w3.org/2000/svg">
<path d="M489.887 5.32629H388.956V74.7196H489.887V5.32629Z" fill="#FFD200"/>
<path d="M425.853 53.6495C425.329 53.646 424.821 53.4687 424.408 53.1455L409.286 41.1822C409.008 40.9692 408.782 40.6945 408.628 40.3796C408.473 40.0647 408.394 39.7183 408.396 39.3676C408.393 39.0161 408.47 38.6685 408.622 38.3512C408.773 38.0339 408.994 37.7552 409.269 37.5362L424.391 25.3545C424.631 25.1615 424.906 25.0174 425.201 24.9307C425.496 24.8439 425.805 24.8161 426.111 24.8489C426.417 24.8817 426.713 24.9743 426.983 25.1216C427.253 25.2689 427.492 25.468 427.685 25.7074C427.878 25.9468 428.022 26.2219 428.109 26.5169C428.195 26.812 428.223 27.1213 428.19 27.4271C428.158 27.7329 428.065 28.0292 427.918 28.2992C427.77 28.5692 427.571 28.8075 427.332 29.0006L414.478 39.3508L427.315 49.4322C427.696 49.7338 427.974 50.1468 428.109 50.6137C428.244 51.0806 428.23 51.5781 428.07 52.0368C427.909 52.4954 427.609 52.8925 427.211 53.1726C426.814 53.4526 426.339 53.6017 425.853 53.5991V53.6495Z" fill="white"/>
<path d="M453.258 53.6496C452.76 53.663 452.272 53.5172 451.863 53.2334C451.454 52.9496 451.147 52.5427 450.985 52.072C450.824 51.6012 450.817 51.0913 450.966 50.6164C451.115 50.1416 451.412 49.7267 451.813 49.4323L464.633 39.3509L451.796 29.0175C451.557 28.8255 451.357 28.5883 451.21 28.3193C451.062 28.0504 450.969 27.7549 450.935 27.4499C450.902 27.1449 450.928 26.8362 451.014 26.5416C451.1 26.2469 451.243 25.9721 451.435 25.7327C451.627 25.4933 451.864 25.294 452.133 25.1463C452.402 24.9986 452.697 24.9053 453.002 24.8717C453.307 24.8382 453.616 24.865 453.911 24.9508C454.205 25.0365 454.48 25.1795 454.72 25.3714L469.842 37.5531C470.131 37.7564 470.369 38.0251 470.535 38.3375C470.702 38.6498 470.792 38.997 470.799 39.3509C470.801 39.6998 470.723 40.0445 470.572 40.3588C470.42 40.6732 470.199 40.9491 469.926 41.1655L454.804 53.1287C454.366 53.4799 453.819 53.6645 453.258 53.6496Z" fill="white"/>
<path d="M433.213 53.6495C432.876 53.6512 432.543 53.5765 432.238 53.4311C431.675 53.1747 431.236 52.705 431.019 52.1253C430.801 51.5456 430.823 50.9032 431.079 50.3395L442.101 26.1946C442.364 25.6329 442.838 25.1976 443.42 24.9837C444.003 24.7697 444.646 24.7943 445.21 25.0521C445.489 25.1788 445.74 25.3596 445.949 25.584C446.158 25.8085 446.32 26.072 446.426 26.3595C446.532 26.647 446.58 26.9528 446.568 27.259C446.555 27.5652 446.482 27.8659 446.352 28.1437L435.33 52.2885C435.144 52.6939 434.846 53.0374 434.47 53.2786C434.095 53.5198 433.659 53.6485 433.213 53.6495Z" fill="white"/>
<path d="M114.104 0H0V190.941H114.104V0Z" fill="#24285B"/>
<path d="M355.687 0.705627H144.332V147.877H355.687V0.705627Z" fill="#E6E6E6"/>
<path d="M355.687 147.86H144.332V292.359H355.687V147.86Z" fill="#E6E6E6"/>
<path d="M334.617 171.097H167.418V239.718H334.617V171.097Z" fill="#C9C9C9"/>
<path d="M283.101 248.236H216.665V280.06H283.101V248.236Z" fill="#C9C9C9"/>
<path d="M341.691 14.3826H158.126V130.352H341.691V14.3826Z" fill="#24285B"/>
<path d="M270.718 94.9327H211.759V101.536H270.718V94.9327Z" fill="#24285B"/>
<path d="M281.388 76.5511H228.679V83.1544H281.388V76.5511Z" fill="#FFD200"/>
<path d="M298.946 110.878H228.679V117.481H298.946V110.878Z" fill="#24285B"/>
<path d="M216.312 110.878H189.882V117.481H216.312V110.878Z" fill="white"/>
<path d="M199.409 94.9327H172.979V101.536H199.409V94.9327Z" fill="white"/>
<path d="M170.14 28.6143C171.856 28.6143 173.248 27.2226 173.248 25.5059C173.248 23.7891 171.856 22.3975 170.14 22.3975C168.423 22.3975 167.031 23.7891 167.031 25.5059C167.031 27.2226 168.423 28.6143 170.14 28.6143Z" fill="white"/>
<path opacity="0.08" d="M211.759 184.237C211.759 184.237 233.703 179.667 228.679 200.837C223.655 222.008 240.44 219.135 237.181 235.719C233.921 252.303 211.759 292.359 211.759 292.359H170.14L191.31 214.346L211.759 184.237Z" fill="black"/>
<path d="M179.381 28.6143C181.098 28.6143 182.49 27.2226 182.49 25.5059C182.49 23.7891 181.098 22.3975 179.381 22.3975C177.664 22.3975 176.273 23.7891 176.273 25.5059C176.273 27.2226 177.664 28.6143 179.381 28.6143Z" fill="#24285B"/>
<path opacity="0.08" d="M312.304 192.151C312.304 192.151 332.87 182.674 341.674 200.686C350.478 218.698 355.687 223.352 355.687 223.352V280.06L310.59 246.17L312.304 192.151Z" fill="black"/>
<path d="M188.101 28.6143C189.818 28.6143 191.21 27.2226 191.21 25.5059C191.21 23.7891 189.818 22.3975 188.101 22.3975C186.385 22.3975 184.993 23.7891 184.993 25.5059C184.993 27.2226 186.385 28.6143 188.101 28.6143Z" fill="#FFD200"/>
<path d="M199.409 44.7444H172.979V51.3477H199.409V44.7444Z" fill="white"/>
<path d="M216.312 61.2443H189.882V67.8475H216.312V61.2443Z" fill="white"/>
<path d="M281.388 61.2443H228.679V67.8475H281.388V61.2443Z" fill="#FFD200"/>
<path d="M216.312 76.5511H189.882V83.1544H216.312V76.5511Z" fill="white"/>
<path d="M264.4 44.7444H209.961V51.3477H264.4V44.7444Z" fill="#24285B"/>
<path d="M314.437 44.7444H275.792V51.3477H314.437V44.7444Z" fill="#24285B"/>
<path d="M310.59 259.024C310.59 259.024 282.715 252.168 284.849 235.5C286.983 218.833 305.012 228.208 305.012 228.208C305.012 228.208 300.29 205.508 293.435 199.056C286.579 192.604 301.147 181.515 312.304 192.218C323.46 202.921 325.611 194.335 334.617 205.475C343.623 216.615 343.623 248.304 343.623 248.304L310.59 259.024Z" fill="#F4A28C"/>
<path d="M310.59 259.04L334.617 354.275L386.956 333.676L343.623 248.236L310.59 259.04Z" fill="#24285B"/>
<path d="M194.906 250.017C194.906 250.017 222.781 243.145 220.648 226.494C218.514 209.843 200.485 219.202 200.485 219.202C200.485 219.202 205.189 196.519 212.062 190.05C218.934 183.581 204.333 172.525 193.176 183.212C182.019 193.898 179.885 185.329 170.879 196.485C161.873 207.642 161.873 239.298 161.873 239.298L194.906 250.017Z" fill="#F4A28C"/>
<path d="M194.906 250.017L170.879 345.253L118.54 324.653L161.873 239.214L194.906 250.017Z" fill="#24285B"/>
<path d="M35.184 58.4382H77.0552V127.932" stroke="white" stroke-width="1.015" stroke-miterlimit="10"/>
<path d="M72.5019 16.6511H17.1553V25.5058H72.5019V16.6511Z" fill="#FFD200"/>
<path d="M49.7684 49.3817H20.5996V67.4945H49.7684V49.3817Z" fill="#24285B"/>
<path d="M35.184 127.932H76.568" stroke="white" stroke-width="1.015" stroke-miterlimit="10"/>
<path d="M91.6397 84.9858H62.4709V103.099H91.6397V84.9858Z" fill="#24285B"/>
<path d="M49.7684 118.876H20.5996V136.989H49.7684V118.876Z" fill="#24285B"/>
<path d="M91.1523 118.876H61.9836V136.989H91.1523V118.876Z" fill="#24285B"/>
<path opacity="0.1" d="M91.1691 161.218H20.5996V174.088H91.1691V161.218Z" fill="white"/>
<path d="M506 106.409H388.603V174.307H506V106.409Z" fill="#E6E6E6"/>
<path d="M408.665 134.821C412.432 134.821 415.486 131.767 415.486 128C415.486 124.232 412.432 121.178 408.665 121.178C404.897 121.178 401.843 124.232 401.843 128C401.843 131.767 404.897 134.821 408.665 134.821Z" fill="#24285B"/>
<path d="M408.665 158.563C412.432 158.563 415.486 155.509 415.486 151.741C415.486 147.974 412.432 144.919 408.665 144.919C404.897 144.919 401.843 147.974 401.843 151.741C401.843 155.509 404.897 158.563 408.665 158.563Z" fill="#24285B"/>
<path d="M485.938 123.345H424.425V131.646H485.938V123.345Z" fill="#C9C9C9"/>
<path d="M485.938 147.356H424.425V155.656H485.938V147.356Z" fill="#C9C9C9"/>
</svg>
