<svg width="127" height="127" viewBox="0 0 127 127" fill="none" xmlns="http://www.w3.org/2000/svg">
<g filter="url(#filter0_d)">
<path d="M63.501 115.002C93.6011 115.002 118.002 90.6011 118.002 60.501C118.002 30.4009 93.6011 6 63.501 6C33.4009 6 9 30.4009 9 60.501C9 90.6011 33.4009 115.002 63.501 115.002Z" fill="#24285B"/>
</g>
<path d="M74.965 78.668V65.962C74.965 62.926 74.92 59.027 70.755 59.027C66.532 59.027 65.899 62.336 65.899 65.736V78.668H57.799V52.531H65.553V56.112H65.659C66.4372 54.7802 67.5623 53.6847 68.9144 52.9424C70.2664 52.2 71.7947 51.8387 73.336 51.897C81.543 51.897 83.066 57.305 83.066 64.346V78.668H74.965ZM52.683 78.668H44.57V52.531H52.685V78.666L52.683 78.668ZM57.783 52.532H57.798H57.783ZM43.936 44.253C43.9374 43.3225 44.2146 42.4133 44.7325 41.6404C45.2504 40.8674 45.9859 40.2653 46.8459 39.9102C47.706 39.5551 48.652 39.4629 49.5644 39.6452C50.4768 39.8276 51.3147 40.2764 51.9721 40.9348C52.6296 41.5932 53.0771 42.4318 53.2581 43.3444C53.4391 44.2571 53.3455 45.203 52.9891 46.0625C52.6327 46.922 52.0295 47.6565 51.2558 48.1733C50.482 48.6901 49.5725 48.966 48.642 48.966C47.3934 48.9636 46.1967 48.466 45.3145 47.5825C44.4323 46.699 43.9365 45.5015 43.936 44.253V44.253Z" fill="white"/>
<defs>
<filter id="filter0_d" x="3" y="3" width="121.002" height="121.002" filterUnits="userSpaceOnUse" color-interpolation-filters="sRGB">
<feFlood flood-opacity="0" result="BackgroundImageFix"/>
<feColorMatrix in="SourceAlpha" type="matrix" values="0 0 0 0 0 0 0 0 0 0 0 0 0 0 0 0 0 0 127 0"/>
<feOffset dy="3"/>
<feGaussianBlur stdDeviation="3"/>
<feColorMatrix type="matrix" values="0 0 0 0 0 0 0 0 0 0 0 0 0 0 0 0 0 0 0.161 0"/>
<feBlend mode="normal" in2="BackgroundImageFix" result="effect1_dropShadow"/>
<feBlend mode="normal" in="SourceGraphic" in2="effect1_dropShadow" result="shape"/>
</filter>
</defs>
</svg>
