<svg width="673" height="508" viewBox="0 0 673 508" fill="none" xmlns="http://www.w3.org/2000/svg">
<path opacity="0.3" d="M487.235 112.12C541.075 130.627 592.492 181.203 594.057 246.585C595.622 311.967 577.754 378.544 479.529 404.353C387.278 428.598 168.25 437.381 109.867 356.133C54.8327 279.529 72.3476 155.175 168.519 115.401C235.971 87.5218 381.928 76.064 487.235 112.12Z" fill="#E6E6E6"/>
<path d="M515.888 150.346H157.129V377.417H515.888V150.346Z" fill="#24285B"/>
<path d="M484.745 172.64H188.238V355.123H484.745V172.64Z" fill="#24285B"/>
<path d="M535.826 377.417H140.59V410.36H535.826V377.417Z" fill="#24285B"/>
<path opacity="0.08" d="M535.826 377.417H140.59V410.36H535.826V377.417Z" fill="black"/>
<path d="M346.881 355.14L364.648 348.326L337.661 277.796L209.37 326.891L220.172 355.14H346.881Z" fill="#FFD200"/>
<path opacity="0.08" d="M346.881 355.14L364.648 348.326L304.835 330.794L281.835 324.048L269.2 344.423L262.571 355.14H346.881Z" fill="black"/>
<path opacity="0.08" d="M337.678 277.796L209.37 326.891L292.2 351.17L337.678 277.796Z" fill="black"/>
<path d="M380.098 163.4L246.199 198.154L265.305 271.763L399.203 237.01L380.098 163.4Z" fill="#FFD200"/>
<path opacity="0.08" d="M399.207 236.995L265.313 271.756L319.036 203.412L399.207 236.995Z" fill="black"/>
<path opacity="0.08" d="M380.094 163.386L246.2 198.146L326.388 231.729L380.094 163.386Z" fill="black"/>
<path d="M498.539 109.491L372.037 53.5118L341.262 123.056L467.765 179.035L498.539 109.491Z" fill="#FFD200"/>
<path opacity="0.08" d="M467.786 179.033L341.278 123.056L425.841 102.9L467.786 179.033Z" fill="black"/>
<path opacity="0.08" d="M498.559 109.478L372.051 53.5017L414.013 129.635L498.559 109.478Z" fill="black"/>
<path opacity="0.08" d="M370.722 377.417H305.71V393.888H370.722V377.417Z" fill="black"/>
<path opacity="0.08" d="M437.046 220.793V236.709V313.078H515.871V236.709V220.793H437.046Z" fill="black"/>
<path d="M545.315 228.751H445.627V305.12H545.315V228.751Z" fill="#E6E6E6"/>
<path d="M545.315 212.834H445.627V228.751H545.315V212.834Z" fill="#B3B3B3"/>
<path d="M513.768 280.959H519.606C517.775 284.667 514.835 287.713 511.194 289.674C506.306 292.213 500.85 293.458 495.345 293.292C489.979 293.423 484.65 292.378 479.731 290.229C475.555 288.397 472.109 285.223 469.939 281.211C467.795 277.226 466.689 272.765 466.725 268.239C466.702 263.223 467.959 258.283 470.377 253.887C472.63 249.639 476.106 246.164 480.354 243.91C484.828 241.619 489.797 240.463 494.823 240.545C499.071 240.471 503.278 241.393 507.105 243.237C510.545 244.905 513.405 247.566 515.316 250.876C517.197 254.163 518.173 257.89 518.143 261.677C518.174 266.252 516.663 270.703 513.852 274.313C512.302 276.543 510.23 278.359 507.816 279.602C505.402 280.846 502.72 281.479 500.005 281.447C498.831 281.51 497.663 281.235 496.64 280.656C495.859 280.092 495.313 279.259 495.109 278.317C494.138 279.309 492.979 280.097 491.699 280.635C490.419 281.172 489.044 281.448 487.656 281.447C486.246 281.485 484.844 281.225 483.542 280.682C482.24 280.14 481.067 279.328 480.101 278.3C479.068 277.168 478.27 275.841 477.756 274.396C477.242 272.952 477.021 271.419 477.107 269.888C477.071 265.683 478.335 261.57 480.724 258.11C481.874 256.148 483.515 254.519 485.486 253.384C487.456 252.248 489.689 251.645 491.963 251.633C493.389 251.545 494.812 251.846 496.08 252.504C497.348 253.162 498.414 254.152 499.164 255.368L499.854 252.323H507.089L502.882 272.126C502.695 272.917 502.565 273.721 502.495 274.532C502.471 274.902 502.585 275.267 502.815 275.558C502.907 275.669 503.023 275.759 503.154 275.82C503.285 275.881 503.428 275.912 503.572 275.911C504.839 275.706 506.013 275.119 506.937 274.229C508.864 272.792 510.421 270.918 511.48 268.761C512.593 266.5 513.169 264.012 513.162 261.492C513.208 259.373 512.795 257.269 511.953 255.323C511.111 253.378 509.859 251.637 508.283 250.22C505.042 247.191 500.504 245.677 494.672 245.677C490.276 245.538 485.923 246.584 482.07 248.705C478.662 250.68 475.947 253.659 474.297 257.236C472.569 260.802 471.671 264.714 471.672 268.677C471.633 272.386 472.642 276.031 474.583 279.192C476.5 282.329 479.38 284.76 482.793 286.124C490.306 288.891 498.537 289.016 506.13 286.477C509.131 285.369 511.773 283.46 513.768 280.959ZM484.139 269.686C484.01 271.482 484.51 273.266 485.553 274.734C485.968 275.259 486.497 275.684 487.1 275.976C487.704 276.267 488.365 276.418 489.035 276.416C490.068 276.421 491.083 276.154 491.98 275.642C492.759 275.208 493.454 274.638 494.032 273.96C495.175 272.51 496.027 270.853 496.539 269.08C497.209 267.153 497.567 265.131 497.599 263.091C497.708 261.386 497.194 259.7 496.152 258.346C495.713 257.809 495.158 257.379 494.528 257.088C493.899 256.796 493.212 256.651 492.518 256.664C490.884 256.69 489.322 257.347 488.161 258.497C486.705 259.919 485.664 261.711 485.149 263.68C484.525 265.623 484.185 267.646 484.139 269.686Z" fill="#B3B3B3"/>
<path opacity="0.08" d="M208.378 220.372H156.96V278.957H208.378V220.372Z" fill="black"/>
<path d="M201.664 211.286H139.092V269.871H201.664V211.286Z" fill="#E6E6E6"/>
<path d="M183.594 235.481L170.37 221.819L157.146 235.481H163.203V259.356H177.537V235.481H183.594Z" fill="#B3B3B3"/>
</svg>
