<svg width="406" height="306" viewBox="0 0 406 306" fill="none" xmlns="http://www.w3.org/2000/svg">
<path d="M296.908 50.9316H122.602V185.379H296.908V50.9316Z" fill="#E6E6E6"/>
<path d="M283.906 60.9598H135.604V175.35H283.906V60.9598Z" fill="#C9C9C9"/>
<path opacity="0.1" d="M179.533 128.772L190.191 134.243L183.339 147.661L190.191 150.544L172.682 185.379H140.699L144.008 155.284L149.012 146.758L161.517 128.772H174.458H179.533Z" fill="black"/>
<path d="M137.055 155.619L154.838 133.461L158.685 136.821L143.521 162.165L137.055 155.619Z" fill="#24285B"/>
<path opacity="0.45" d="M195.022 280.565C266.069 280.565 323.663 273.244 323.663 264.214C323.663 255.183 266.069 247.862 195.022 247.862C123.976 247.862 66.381 255.183 66.381 264.214C66.381 273.244 123.976 280.565 195.022 280.565Z" fill="#E6E6E6"/>
<path opacity="0.58" d="M280.972 245.751C280.972 245.751 270.822 243.02 268.589 233.571C268.589 233.571 284.261 230.333 284.779 246.522L280.972 245.751Z" fill="#24285B"/>
<path opacity="0.73" d="M282.17 244.736C282.17 244.736 275.065 233.571 281.236 223.096C281.236 223.096 293.203 230.627 287.956 244.736H282.17Z" fill="#24285B"/>
<path d="M284.027 244.736C284.027 244.736 287.722 232.911 299.009 230.627C299.009 230.627 301.161 238.28 291.752 244.736H284.027Z" fill="#24285B"/>
<path d="M276.679 244.502L278.79 258.54H291.721L293.568 244.502H276.679Z" fill="#24285B"/>
<path d="M107.6 119.109L110.889 128.955L103.094 133.908L100.292 116.846L107.6 119.109Z" fill="#F4A28C"/>
<path d="M97.6126 107.325C98.0115 106.379 98.6432 105.549 99.4489 104.912C100.255 104.276 101.208 103.853 102.221 103.684C103.234 103.515 104.273 103.605 105.242 103.945C106.211 104.285 107.078 104.865 107.763 105.63C111.071 109.162 115.071 114.765 110.554 117.81C103.632 122.499 97.2776 113.75 97.2776 113.75C96.7564 111.622 96.8729 109.387 97.6126 107.325Z" fill="#F4A28C"/>
<path d="M102.677 113.415C102.677 113.415 100.901 111.933 100.099 114.044C99.2975 116.155 102.434 117.17 103.368 116.074C104.301 114.978 102.677 113.415 102.677 113.415Z" fill="#F4A28C"/>
<path d="M93.9991 138.79C95.1752 136.18 96.9001 133.854 99.0563 131.971C101.212 130.088 103.749 128.693 106.494 127.879C117.08 124.702 136.568 128.183 142.516 138.09C150.636 151.64 138.74 194.706 138.74 194.706L103.215 197.467C103.215 197.467 83.5954 162.135 93.9991 138.79Z" fill="#24285B"/>
<path d="M138.74 194.656L134.061 255.82H126.662L120.054 208.307L103.703 197.416L138.74 194.656Z" fill="#24285B"/>
<path d="M103.703 197.416L93.4917 255.819H101.419L118.552 207.302L103.703 197.416Z" fill="#24285B"/>
<path opacity="0.08" d="M109.62 126.904C109.62 126.904 92.974 180.496 141.085 184.059L138.74 194.615L103.215 197.376C103.215 197.376 90.6801 177.695 91.2079 150.046C91.2079 150.046 91.5124 136.374 101.135 130.335C103.685 128.598 106.579 127.428 109.62 126.904Z" fill="black"/>
<path d="M95.3491 255.698L90.5684 259.22C90.3581 259.333 90.1943 259.517 90.106 259.739C90.0177 259.961 90.0105 260.206 90.0856 260.433C90.1608 260.66 90.3135 260.853 90.517 260.978C90.7204 261.103 90.9614 261.153 91.1977 261.118H99.2061C99.4753 261.118 99.7335 261.011 99.9238 260.821C100.114 260.63 100.221 260.372 100.221 260.103V255.738L95.3491 255.698Z" fill="#24285B"/>
<path d="M133.138 255.698L137.634 259.22C137.851 259.332 138.02 259.519 138.111 259.745C138.201 259.972 138.207 260.224 138.127 260.455C138.047 260.685 137.886 260.88 137.674 261.001C137.462 261.123 137.214 261.164 136.974 261.118H131.28C130.473 261.118 129.698 260.797 129.127 260.226C128.556 259.655 128.235 258.88 128.235 258.073V255.698H133.138Z" fill="#24285B"/>
<path d="M124.074 127.554C122.3 130.4 121.36 133.686 121.36 137.039C121.36 140.392 122.3 143.678 124.074 146.524C127.951 153.071 139.238 165.809 146.962 174.254C147.83 175.213 148.915 175.951 150.126 176.406C151.337 176.862 152.639 177.021 153.924 176.871C155.209 176.721 156.439 176.266 157.513 175.544C158.586 174.823 159.472 173.855 160.096 172.721L176.671 143.489L171.048 139.886L155.823 162.165C155.823 162.165 145.46 127.98 124.074 127.554Z" fill="#24285B"/>
<path opacity="0.2" d="M124.074 127.554C122.3 130.4 121.36 133.686 121.36 137.039C121.36 140.392 122.3 143.678 124.074 146.524C127.951 153.071 139.238 165.809 146.962 174.254C147.83 175.213 148.915 175.951 150.126 176.406C151.337 176.862 152.639 177.021 153.924 176.871C155.209 176.721 156.439 176.266 157.513 175.544C158.586 174.823 159.472 173.855 160.096 172.721L176.671 143.489L171.048 139.886L155.823 162.165C155.823 162.165 145.46 127.98 124.074 127.554Z" fill="white"/>
<path d="M250.756 119.972V175.35" stroke="#E6E6E6" stroke-width="7.105" stroke-miterlimit="10"/>
<path d="M174.712 142.241C174.712 142.241 184.121 138.78 180.284 133.451C176.448 128.122 171.048 139.886 171.048 139.886L174.712 142.241Z" fill="#F4A28C"/>
<path d="M183.262 126.774L174.777 122.974L169.233 135.349L177.718 139.15L183.262 126.774Z" fill="#FFD200"/>
<path d="M89.9493 139.287C95.3593 136.679 104.159 133.421 112.645 134.436C114.372 134.637 116.01 135.312 117.377 136.387C118.744 137.462 119.786 138.895 120.389 140.526C122.663 146.707 126.195 158.004 126.002 167.931C125.974 169.847 125.369 171.711 124.267 173.279C123.164 174.846 121.615 176.046 119.821 176.721C112.98 179.176 105.861 180.775 98.6276 181.481C96.4071 181.716 94.1746 181.164 92.3196 179.921C90.4646 178.678 89.1048 176.823 88.4776 174.68C86.0218 166.003 84.7082 157.043 84.5698 148.027C84.5344 146.207 85.0227 144.417 85.9765 142.867C86.9302 141.318 88.3093 140.075 89.9493 139.287Z" fill="#24285B"/>
<path opacity="0.1" d="M239.885 50.9316H286.869V52.0075L263.372 92.029H251.476L239.885 50.9316Z" fill="black"/>
<path d="M99.4599 153.274C100.968 153.274 102.19 152.052 102.19 150.544C102.19 149.036 100.968 147.813 99.4599 147.813C97.9519 147.813 96.7295 149.036 96.7295 150.544C96.7295 152.052 97.9519 153.274 99.4599 153.274Z" fill="white"/>
<path d="M112.665 134.436C112.665 134.436 118.43 125.504 125.251 126.691C132.072 127.879 132.559 129.655 132.559 129.655C132.559 129.655 122.338 129.746 118.552 138.536L112.665 134.436Z" fill="#24285B"/>
<path d="M125.728 162.054C125.728 162.054 129.138 166.114 140.953 166.936L145.328 172.498C137.941 173.942 130.282 172.535 123.891 168.56C113.609 161.891 125.728 162.054 125.728 162.054Z" fill="#24285B"/>
<path d="M176.671 99.8445L213.444 131.056" stroke="#E6E6E6" stroke-width="7.105" stroke-miterlimit="10"/>
<path d="M250.756 119.972L286.869 143.104" stroke="#E6E6E6" stroke-width="7.105" stroke-miterlimit="10"/>
<path d="M100.8 119.972L95.5318 114.521C94.9874 113.954 94.5644 113.281 94.2887 112.545C94.013 111.808 93.8903 111.024 93.9281 110.238C94.06 107.457 94.6487 103.032 96.9731 99.7125C100.586 94.4954 105.377 92.5263 106.575 97.0329C107.773 101.54 108.016 96.1905 110.919 98.5859C113.822 100.981 113.223 102.382 110.919 103.661C108.615 104.94 103.814 106.767 103.398 110.563C102.982 114.359 106.575 117.475 100.8 119.972Z" fill="#24285B"/>
<path d="M201.863 175.716V145.773L222.163 119.972H250.746V83.1884" stroke="white" stroke-width="7.105" stroke-miterlimit="10"/>
<path d="M250.756 97.784C260.543 97.784 268.478 95.2074 268.478 92.029C268.478 88.8505 260.543 86.2739 250.756 86.2739C240.968 86.2739 233.034 88.8505 233.034 92.029C233.034 95.2074 240.968 97.784 250.756 97.784Z" fill="#24285B"/>
<path d="M155.742 134.243C155.742 134.243 156.909 126.123 164.795 126.904C172.682 127.686 169.799 129.696 166.612 129.848C165.965 129.979 165.366 130.284 164.878 130.729C164.39 131.174 164.032 131.743 163.841 132.375C163.374 133.796 162.096 135.643 158.705 136.811L155.742 134.243Z" fill="#F4A28C"/>
<path d="M276.78 43.2379C276.781 39.218 275.851 35.2526 274.062 31.6524C272.274 28.0522 269.676 24.915 266.473 22.4867C263.269 20.0584 259.547 18.4049 255.597 17.6558C251.648 16.9066 247.578 17.0823 243.708 18.1689C239.838 19.2555 236.272 21.2235 233.29 23.9188C230.307 26.6141 227.989 29.9634 226.518 33.7043C225.046 37.4452 224.461 41.476 224.808 45.4809C225.155 49.4858 226.424 53.3559 228.517 56.7881L250.756 93.2165L272.873 56.9607C275.433 52.842 276.787 48.0876 276.78 43.2379ZM250.756 57.052C248.238 57.052 245.778 56.3055 243.684 54.907C241.591 53.5084 239.96 51.5205 238.997 49.1948C238.033 46.869 237.781 44.3098 238.272 41.8408C238.763 39.3718 239.976 37.1039 241.756 35.3238C243.536 33.5437 245.804 32.3315 248.273 31.8404C250.742 31.3493 253.301 31.6013 255.627 32.5647C257.952 33.5281 259.94 35.1595 261.339 37.2526C262.737 39.3457 263.484 41.8065 263.484 44.3239C263.484 45.9954 263.155 47.6505 262.515 49.1948C261.875 50.739 260.938 52.1421 259.756 53.3241C258.574 54.506 257.171 55.4435 255.627 56.0832C254.082 56.7228 252.427 57.052 250.756 57.052Z" fill="#FFD200"/>
<path d="M132.559 99.8445H176.671V57.4683" stroke="#E6E6E6" stroke-width="7.105" stroke-miterlimit="10"/>
<path opacity="0.1" d="M324.262 152.797H260.053V185.378H324.262V152.797Z" fill="black"/>
<path d="M176.671 81.3208H218.357V57.4683" stroke="#E6E6E6" stroke-width="7.105" stroke-miterlimit="10"/>
<path d="M347.353 152.797H268.478V201.009H347.353V152.797Z" fill="#F2F2F2"/>
<path d="M286.139 181.298C286.139 181.298 284.9 188.028 290.31 187.114C295.72 186.201 293.142 183.338 292.34 179.644L286.139 181.298Z" fill="#A5A5A5"/>
<path d="M285.499 178.182L291.752 176.741C291.752 176.741 292.005 171.737 291.752 166.723C291.498 161.709 286.524 157.588 283.236 160.947C279.947 164.307 281.155 171.179 285.499 178.182Z" fill="#A5A5A5"/>
<path d="M297.334 187.51C297.334 187.51 293.771 192.514 298.512 193.823C303.252 195.133 302.247 191.793 303.018 188.545L297.334 187.51Z" fill="#A5A5A5"/>
<path d="M297.994 184.709L303.617 185.916C303.617 185.916 305.728 181.948 307.383 177.796C309.037 173.645 306.611 168.377 302.653 169.879C298.694 171.382 297.151 177.36 297.994 184.709Z" fill="#A5A5A5"/>
<path opacity="0.67" d="M337.741 170.397H318.71V175.685H337.741V170.397Z" fill="#C9C9C9"/>
<path opacity="0.31" d="M337.741 179.816H318.71V185.104H337.741V179.816Z" fill="#C9C9C9"/>
</svg>
