<svg width="127" height="128" viewBox="0 0 127 128" fill="none" xmlns="http://www.w3.org/2000/svg">
<g filter="url(#filter0_d)">
<path d="M63.501 115.002C93.6011 115.002 118.002 90.6011 118.002 60.501C118.002 30.4009 93.6011 6 63.501 6C33.4009 6 9 30.4009 9 60.501C9 90.6011 33.4009 115.002 63.501 115.002Z" fill="#24285B"/>
</g>
<path d="M85.86 46.6339C84.1851 47.3755 82.4088 47.8629 80.59 48.0799C82.5053 46.9338 83.9387 45.1305 84.623 43.0059C82.8222 44.076 80.8513 44.8295 78.796 45.2339C77.5372 43.8927 75.9045 42.9605 74.1096 42.5584C72.3147 42.1563 70.4403 42.3028 68.7296 42.9788C67.0189 43.6548 65.5508 44.8291 64.5156 46.3496C63.4804 47.8701 62.9259 49.6665 62.924 51.5059C62.924 52.21 63.0042 52.9119 63.163 53.5979C59.5156 53.4151 55.9475 52.4673 52.6902 50.816C49.4329 49.1647 46.5593 46.8468 44.256 44.0129C43.0831 46.0324 42.7239 48.4229 43.2513 50.6979C43.7787 52.9729 45.1532 54.9615 47.095 56.2589C45.6384 56.2144 44.2138 55.8207 42.941 55.1109V55.2279C42.9412 57.3457 43.6741 59.3983 45.0152 61.0374C46.3563 62.6765 48.2231 63.8013 50.299 64.2209C49.511 64.4355 48.6977 64.5438 47.881 64.5429C47.3017 64.5431 46.7237 64.4875 46.155 64.3769C46.7416 66.1996 47.883 67.7935 49.4197 68.9359C50.9564 70.0784 52.8115 70.7122 54.726 70.7489C51.4734 73.2979 47.4584 74.6799 43.326 74.6729C42.5958 74.6737 41.8662 74.6313 41.141 74.5459C45.3358 77.242 50.2184 78.6731 55.205 78.6679C72.079 78.6679 81.305 64.6909 81.305 52.5679C81.305 52.1679 81.294 51.7759 81.279 51.3819C83.0761 50.0841 84.6273 48.4763 85.86 46.6339Z" fill="white"/>
<defs>
<filter id="filter0_d" x="3" y="3" width="121.002" height="121.002" filterUnits="userSpaceOnUse" color-interpolation-filters="sRGB">
<feFlood flood-opacity="0" result="BackgroundImageFix"/>
<feColorMatrix in="SourceAlpha" type="matrix" values="0 0 0 0 0 0 0 0 0 0 0 0 0 0 0 0 0 0 127 0"/>
<feOffset dy="3"/>
<feGaussianBlur stdDeviation="3"/>
<feColorMatrix type="matrix" values="0 0 0 0 0 0 0 0 0 0 0 0 0 0 0 0 0 0 0.161 0"/>
<feBlend mode="normal" in2="BackgroundImageFix" result="effect1_dropShadow"/>
<feBlend mode="normal" in="SourceGraphic" in2="effect1_dropShadow" result="shape"/>
</filter>
</defs>
</svg>
