<svg width="127" height="127" viewBox="0 0 127 127" fill="none" xmlns="http://www.w3.org/2000/svg">
<g filter="url(#filter0_d)">
<path d="M63.501 115.002C93.6011 115.002 118.002 90.6011 118.002 60.501C118.002 30.4009 93.6011 6 63.501 6C33.4009 6 9 30.4009 9 60.501C9 90.6011 33.4009 115.002 63.501 115.002Z" fill="#24285B"/>
</g>
<path d="M63.501 80.065C63.37 80.065 50.356 79.97 46.414 79.532C46.202 79.482 45.944 79.445 45.645 79.402C43.8166 79.2947 42.1016 78.4802 40.863 77.131C39.406 75.46 38.873 71.655 38.868 71.617C38.5432 68.6341 38.3693 65.6366 38.347 62.636L38.347 58.455C38.347 53.98 38.862 49.43 38.868 49.384C38.874 49.338 39.32 45.536 40.862 43.87C41.4782 43.1762 42.229 42.6148 43.0687 42.2197C43.9084 41.8247 44.8196 41.6044 45.747 41.572H45.757L45.897 41.559C52.836 41.036 63.395 40.936 63.501 40.936C63.607 40.936 74.166 41.036 81.109 41.559L81.347 41.578C82.2633 41.5947 83.1653 41.808 83.992 42.2034C84.8187 42.5988 85.5509 43.1672 86.139 43.87C87.595 45.54 88.129 49.346 88.134 49.384C88.139 49.422 88.655 53.976 88.655 58.455V62.636C88.655 67.023 88.14 71.572 88.134 71.617C88.128 71.662 87.595 75.461 86.139 77.131C85.5235 77.8246 84.7736 78.3861 83.9348 78.7814C83.096 79.1768 82.1857 79.3978 81.259 79.431H81.247L81.107 79.444C74.164 80.057 63.607 80.065 63.501 80.065ZM57.429 51.518V70.818L73.91 61.391L57.429 51.518Z" fill="white"/>
<defs>
<filter id="filter0_d" x="3" y="3" width="121.002" height="121.002" filterUnits="userSpaceOnUse" color-interpolation-filters="sRGB">
<feFlood flood-opacity="0" result="BackgroundImageFix"/>
<feColorMatrix in="SourceAlpha" type="matrix" values="0 0 0 0 0 0 0 0 0 0 0 0 0 0 0 0 0 0 127 0"/>
<feOffset dy="3"/>
<feGaussianBlur stdDeviation="3"/>
<feColorMatrix type="matrix" values="0 0 0 0 0 0 0 0 0 0 0 0 0 0 0 0 0 0 0.161 0"/>
<feBlend mode="normal" in2="BackgroundImageFix" result="effect1_dropShadow"/>
<feBlend mode="normal" in="SourceGraphic" in2="effect1_dropShadow" result="shape"/>
</filter>
</defs>
</svg>
